<?xml version="1.0" encoding="UTF-8" standalone="no"?>
<!DOCTYPE svg PUBLIC "-//W3C//DTD SVG 1.1//EN"
 "http://www.w3.org/Graphics/SVG/1.1/DTD/svg11.dtd">
<!-- Generated by graphviz version 2.47.0 (20210316.0004)
 -->
<!-- Title: dependencies Pages: 1 -->
<svg width="504pt" height="284pt"
 viewBox="0.00 0.00 504.00 284.00" xmlns="http://www.w3.org/2000/svg" xmlns:xlink="http://www.w3.org/1999/xlink">
<g id="graph0" class="graph" transform="scale(1 1) rotate(0) translate(4 280)">
<title>dependencies</title>
<polygon fill="white" stroke="transparent" points="-4,4 -4,-280 500,-280 500,4 -4,4"/>
<text text-anchor="start" x="227.01" y="-42.4" font-family="Times-12" font-weight="bold" font-size="14.00">Legend</text>
<polygon fill="#ffffb3" stroke="transparent" points="14,-10 14,-30 34,-30 34,-10 14,-10"/>
<text text-anchor="start" x="37.63" y="-15.4" font-family="Times-12" font-size="14.00"> &#160;Declarations</text>
<polygon fill="#8dd3c7" stroke="transparent" points="127,-10 127,-30 147,-30 147,-10 127,-10"/>
<text text-anchor="start" x="150.73" y="-15.4" font-family="Times-12" font-size="14.00"> &#160;Module</text>
<polygon fill="#80b1d3" stroke="transparent" points="213,-10 213,-30 233,-30 233,-10 213,-10"/>
<text text-anchor="start" x="236.78" y="-15.4" font-family="Times-12" font-size="14.00"> &#160;Bootstrap</text>
<polygon fill="#fdb462" stroke="transparent" points="310,-10 310,-30 330,-30 330,-10 310,-10"/>
<text text-anchor="start" x="333.67" y="-15.4" font-family="Times-12" font-size="14.00"> &#160;Providers</text>
<polygon fill="#fb8072" stroke="transparent" points="406,-10 406,-30 426,-30 426,-10 406,-10"/>
<text text-anchor="start" x="429.73" y="-15.4" font-family="Times-12" font-size="14.00"> &#160;Exports</text>
<g id="clust1" class="cluster">
<title>cluster_PrismaModule</title>
<polygon fill="none" stroke="black" stroke-dasharray="1,5" points="70,-70 70,-268 426,-268 426,-70 70,-70"/>
</g>
<g id="clust4" class="cluster">
<title>cluster_PrismaModule_exports</title>
<polygon fill="none" stroke="black" points="78,-208 78,-260 418,-260 418,-208 78,-208"/>
</g>
<g id="clust6" class="cluster">
<title>cluster_PrismaModule_providers</title>
<polygon fill="none" stroke="black" points="146,-78 146,-130 296,-130 296,-78 146,-78"/>
</g>
<!-- CondominiumRepo  -->
<g id="node1" class="node">
<title>CondominiumRepo </title>
<polygon fill="#fb8072" stroke="black" points="409.95,-252 280.05,-252 280.05,-216 409.95,-216 409.95,-252"/>
<text text-anchor="middle" x="345" y="-229.8" font-family="Times,serif" font-size="14.00">CondominiumRepo </text>
</g>
<!-- InviteRepo  -->
<g id="node2" class="node">
<title>InviteRepo </title>
<polygon fill="#fb8072" stroke="black" points="261.71,-252 180.29,-252 180.29,-216 261.71,-216 261.71,-252"/>
<text text-anchor="middle" x="221" y="-229.8" font-family="Times,serif" font-size="14.00">InviteRepo </text>
</g>
<!-- UserRepo  -->
<g id="node3" class="node">
<title>UserRepo </title>
<polygon fill="#fb8072" stroke="black" points="161.98,-252 86.02,-252 86.02,-216 161.98,-216 161.98,-252"/>
<text text-anchor="middle" x="124" y="-229.8" font-family="Times,serif" font-size="14.00">UserRepo </text>
</g>
<!-- PrismaModule -->
<g id="node4" class="node">
<title>PrismaModule</title>
<polygon fill="#8dd3c7" stroke="black" points="270.43,-187 267.43,-191 246.43,-191 243.43,-187 171.57,-187 171.57,-151 270.43,-151 270.43,-187"/>
<text text-anchor="middle" x="221" y="-164.8" font-family="Times,serif" font-size="14.00">PrismaModule</text>
</g>
<!-- PrismaModule&#45;&gt;CondominiumRepo  -->
<g id="edge1" class="edge">
<title>PrismaModule&#45;&gt;CondominiumRepo </title>
<path fill="none" stroke="black" stroke-dasharray="5,2" d="M270.27,-169C278.23,-169 283.92,-169 283.92,-169 283.92,-169 283.92,-205.89 283.92,-205.89"/>
<polygon fill="black" stroke="black" points="280.42,-205.89 283.92,-215.89 287.42,-205.89 280.42,-205.89"/>
</g>
<!-- PrismaModule&#45;&gt;InviteRepo  -->
<g id="edge2" class="edge">
<title>PrismaModule&#45;&gt;InviteRepo </title>
<path fill="none" stroke="black" stroke-dasharray="5,2" d="M221,-187.11C221,-187.11 221,-205.99 221,-205.99"/>
<polygon fill="black" stroke="black" points="217.5,-205.99 221,-215.99 224.5,-205.99 217.5,-205.99"/>
</g>
<!-- PrismaModule&#45;&gt;UserRepo  -->
<g id="edge3" class="edge">
<title>PrismaModule&#45;&gt;UserRepo </title>
<path fill="none" stroke="black" stroke-dasharray="5,2" d="M171.64,-169C163.67,-169 157.96,-169 157.96,-169 157.96,-169 157.96,-205.89 157.96,-205.89"/>
<polygon fill="black" stroke="black" points="154.46,-205.89 157.96,-215.89 161.46,-205.89 154.46,-205.89"/>
</g>
<!-- PrismaService -->
<g id="node5" class="node">
<title>PrismaService</title>
<ellipse fill="#fdb462" stroke="black" cx="221" cy="-104" rx="66.63" ry="18"/>
<text text-anchor="middle" x="221" y="-99.8" font-family="Times,serif" font-size="14.00">PrismaService</text>
</g>
<!-- PrismaService&#45;&gt;PrismaModule -->
<g id="edge4" class="edge">
<title>PrismaService&#45;&gt;PrismaModule</title>
<path fill="none" stroke="black" d="M221,-122.11C221,-122.11 221,-140.99 221,-140.99"/>
<polygon fill="black" stroke="black" points="217.5,-140.99 221,-150.99 224.5,-140.99 217.5,-140.99"/>
</g>
</g>
</svg>
