<?xml version="1.0" encoding="UTF-8" standalone="no"?>
<!DOCTYPE svg PUBLIC "-//W3C//DTD SVG 1.1//EN"
 "http://www.w3.org/Graphics/SVG/1.1/DTD/svg11.dtd">
<!-- Generated by graphviz version 2.47.0 (20210316.0004)
 -->
<!-- Title: dependencies Pages: 1 -->
<svg width="504pt" height="284pt"
 viewBox="0.00 0.00 504.00 284.00" xmlns="http://www.w3.org/2000/svg" xmlns:xlink="http://www.w3.org/1999/xlink">
<g id="graph0" class="graph" transform="scale(1 1) rotate(0) translate(4 280)">
<title>dependencies</title>
<polygon fill="white" stroke="transparent" points="-4,4 -4,-280 500,-280 500,4 -4,4"/>
<text text-anchor="start" x="227.01" y="-42.4" font-family="Times-12" font-weight="bold" font-size="14.00">Legend</text>
<polygon fill="#ffffb3" stroke="transparent" points="14,-10 14,-30 34,-30 34,-10 14,-10"/>
<text text-anchor="start" x="37.63" y="-15.4" font-family="Times-12" font-size="14.00"> &#160;Declarations</text>
<polygon fill="#8dd3c7" stroke="transparent" points="127,-10 127,-30 147,-30 147,-10 127,-10"/>
<text text-anchor="start" x="150.73" y="-15.4" font-family="Times-12" font-size="14.00"> &#160;Module</text>
<polygon fill="#80b1d3" stroke="transparent" points="213,-10 213,-30 233,-30 233,-10 213,-10"/>
<text text-anchor="start" x="236.78" y="-15.4" font-family="Times-12" font-size="14.00"> &#160;Bootstrap</text>
<polygon fill="#fdb462" stroke="transparent" points="310,-10 310,-30 330,-30 330,-10 310,-10"/>
<text text-anchor="start" x="333.67" y="-15.4" font-family="Times-12" font-size="14.00"> &#160;Providers</text>
<polygon fill="#fb8072" stroke="transparent" points="406,-10 406,-30 426,-30 426,-10 406,-10"/>
<text text-anchor="start" x="429.73" y="-15.4" font-family="Times-12" font-size="14.00"> &#160;Exports</text>
<g id="clust1" class="cluster">
<title>cluster_FirestoreModule</title>
<polygon fill="none" stroke="black" stroke-dasharray="1,5" points="51,-70 51,-268 445,-268 445,-70 51,-70"/>
</g>
<g id="clust6" class="cluster">
<title>cluster_FirestoreModule_providers</title>
<polygon fill="none" stroke="black" points="59,-78 59,-130 437,-130 437,-78 59,-78"/>
</g>
<g id="clust4" class="cluster">
<title>cluster_FirestoreModule_exports</title>
<polygon fill="none" stroke="black" points="78,-208 78,-260 418,-260 418,-208 78,-208"/>
</g>
<!-- CondominiumRepo  -->
<g id="node1" class="node">
<title>CondominiumRepo </title>
<polygon fill="#fb8072" stroke="black" points="409.95,-252 280.05,-252 280.05,-216 409.95,-216 409.95,-252"/>
<text text-anchor="middle" x="345" y="-229.8" font-family="Times,serif" font-size="14.00">CondominiumRepo </text>
</g>
<!-- InviteRepo  -->
<g id="node2" class="node">
<title>InviteRepo </title>
<polygon fill="#fb8072" stroke="black" points="261.71,-252 180.29,-252 180.29,-216 261.71,-216 261.71,-252"/>
<text text-anchor="middle" x="221" y="-229.8" font-family="Times,serif" font-size="14.00">InviteRepo </text>
</g>
<!-- UserRepo  -->
<g id="node3" class="node">
<title>UserRepo </title>
<polygon fill="#fb8072" stroke="black" points="161.98,-252 86.02,-252 86.02,-216 161.98,-216 161.98,-252"/>
<text text-anchor="middle" x="124" y="-229.8" font-family="Times,serif" font-size="14.00">UserRepo </text>
</g>
<!-- FirestoreModule -->
<g id="node4" class="node">
<title>FirestoreModule</title>
<polygon fill="#8dd3c7" stroke="black" points="275.81,-187 272.81,-191 251.81,-191 248.81,-187 166.19,-187 166.19,-151 275.81,-151 275.81,-187"/>
<text text-anchor="middle" x="221" y="-164.8" font-family="Times,serif" font-size="14.00">FirestoreModule</text>
</g>
<!-- FirestoreModule&#45;&gt;CondominiumRepo  -->
<g id="edge1" class="edge">
<title>FirestoreModule&#45;&gt;CondominiumRepo </title>
<path fill="none" stroke="black" stroke-dasharray="5,2" d="M268.75,-187.11C268.75,-206.34 268.75,-234 268.75,-234 268.75,-234 270,-234 270,-234"/>
<polygon fill="black" stroke="black" points="270,-237.5 280,-234 270,-230.5 270,-237.5"/>
</g>
<!-- FirestoreModule&#45;&gt;InviteRepo  -->
<g id="edge2" class="edge">
<title>FirestoreModule&#45;&gt;InviteRepo </title>
<path fill="none" stroke="black" stroke-dasharray="5,2" d="M221,-187.11C221,-187.11 221,-205.99 221,-205.99"/>
<polygon fill="black" stroke="black" points="217.5,-205.99 221,-215.99 224.5,-205.99 217.5,-205.99"/>
</g>
<!-- FirestoreModule&#45;&gt;UserRepo  -->
<g id="edge3" class="edge">
<title>FirestoreModule&#45;&gt;UserRepo </title>
<path fill="none" stroke="black" stroke-dasharray="5,2" d="M173.25,-187.11C173.25,-206.34 173.25,-234 173.25,-234 173.25,-234 171.82,-234 171.82,-234"/>
<polygon fill="black" stroke="black" points="171.82,-230.5 161.82,-234 171.82,-237.5 171.82,-230.5"/>
</g>
<!-- CollectionsRefService -->
<g id="node5" class="node">
<title>CollectionsRefService</title>
<ellipse fill="#fdb462" stroke="black" cx="331" cy="-104" rx="97.85" ry="18"/>
<text text-anchor="middle" x="331" y="-99.8" font-family="Times,serif" font-size="14.00">CollectionsRefService</text>
</g>
<!-- CollectionsRefService&#45;&gt;FirestoreModule -->
<g id="edge4" class="edge">
<title>CollectionsRefService&#45;&gt;FirestoreModule</title>
<path fill="none" stroke="black" d="M254.37,-115.32C254.37,-115.32 254.37,-140.94 254.37,-140.94"/>
<polygon fill="black" stroke="black" points="250.87,-140.94 254.37,-150.94 257.87,-140.94 250.87,-140.94"/>
</g>
<!-- FirestoreService -->
<g id="node6" class="node">
<title>FirestoreService</title>
<ellipse fill="#fdb462" stroke="black" cx="141" cy="-104" rx="74.13" ry="18"/>
<text text-anchor="middle" x="141" y="-99.8" font-family="Times,serif" font-size="14.00">FirestoreService</text>
</g>
<!-- FirestoreService&#45;&gt;FirestoreModule -->
<g id="edge5" class="edge">
<title>FirestoreService&#45;&gt;FirestoreModule</title>
<path fill="none" stroke="black" d="M190.83,-117.47C190.83,-117.47 190.83,-140.86 190.83,-140.86"/>
<polygon fill="black" stroke="black" points="187.33,-140.86 190.83,-150.86 194.33,-140.86 187.33,-140.86"/>
</g>
</g>
</svg>
