<?xml version="1.0" encoding="UTF-8" standalone="no"?>
<!DOCTYPE svg PUBLIC "-//W3C//DTD SVG 1.1//EN"
 "http://www.w3.org/Graphics/SVG/1.1/DTD/svg11.dtd">
<!-- Generated by graphviz version 2.47.0 (20210316.0004)
 -->
<!-- Title: dependencies Pages: 1 -->
<svg width="1897pt" height="211pt"
 viewBox="0.00 0.00 1897.00 211.00" xmlns="http://www.w3.org/2000/svg" xmlns:xlink="http://www.w3.org/1999/xlink">
<g id="graph0" class="graph" transform="scale(1 1) rotate(0) translate(4 207)">
<title>dependencies</title>
<polygon fill="white" stroke="transparent" points="-4,4 -4,-207 1893,-207 1893,4 -4,4"/>
<text text-anchor="start" x="923.51" y="-42.4" font-family="Times-12" font-weight="bold" font-size="14.00">Legend</text>
<polygon fill="#ffffb3" stroke="transparent" points="710.5,-10 710.5,-30 730.5,-30 730.5,-10 710.5,-10"/>
<text text-anchor="start" x="734.13" y="-15.4" font-family="Times-12" font-size="14.00"> &#160;Declarations</text>
<polygon fill="#8dd3c7" stroke="transparent" points="823.5,-10 823.5,-30 843.5,-30 843.5,-10 823.5,-10"/>
<text text-anchor="start" x="847.23" y="-15.4" font-family="Times-12" font-size="14.00"> &#160;Module</text>
<polygon fill="#80b1d3" stroke="transparent" points="909.5,-10 909.5,-30 929.5,-30 929.5,-10 909.5,-10"/>
<text text-anchor="start" x="933.28" y="-15.4" font-family="Times-12" font-size="14.00"> &#160;Bootstrap</text>
<polygon fill="#fdb462" stroke="transparent" points="1006.5,-10 1006.5,-30 1026.5,-30 1026.5,-10 1006.5,-10"/>
<text text-anchor="start" x="1030.17" y="-15.4" font-family="Times-12" font-size="14.00"> &#160;Providers</text>
<polygon fill="#fb8072" stroke="transparent" points="1102.5,-10 1102.5,-30 1122.5,-30 1122.5,-10 1102.5,-10"/>
<text text-anchor="start" x="1126.23" y="-15.4" font-family="Times-12" font-size="14.00"> &#160;Exports</text>
<g id="clust1" class="cluster">
<title>cluster_HttpModule</title>
<polygon fill="none" stroke="black" stroke-dasharray="1,5" points="8,-70 8,-195 1881,-195 1881,-70 8,-70"/>
</g>
<g id="clust6" class="cluster">
<title>cluster_HttpModule_providers</title>
<polygon fill="none" stroke="black" points="405,-78 405,-130 1873,-130 1873,-78 405,-78"/>
</g>
<g id="clust3" class="cluster">
<title>cluster_HttpModule_imports</title>
<polygon fill="none" stroke="black" points="16,-78 16,-130 397,-130 397,-78 16,-78"/>
</g>
<!-- AdaptersModule -->
<g id="node1" class="node">
<title>AdaptersModule</title>
<polygon fill="#8dd3c7" stroke="black" points="389.08,-122 386.08,-126 365.08,-126 362.08,-122 278.92,-122 278.92,-86 389.08,-86 389.08,-122"/>
<text text-anchor="middle" x="334" y="-99.8" font-family="Times,serif" font-size="14.00">AdaptersModule</text>
</g>
<!-- HttpModule -->
<g id="node4" class="node">
<title>HttpModule</title>
<polygon fill="#8dd3c7" stroke="black" points="915.44,-187 912.44,-191 891.44,-191 888.44,-187 830.56,-187 830.56,-151 915.44,-151 915.44,-187"/>
<text text-anchor="middle" x="873" y="-164.8" font-family="Times,serif" font-size="14.00">HttpModule</text>
</g>
<!-- AdaptersModule&#45;&gt;HttpModule -->
<g id="edge1" class="edge">
<title>AdaptersModule&#45;&gt;HttpModule</title>
<path fill="none" stroke="black" d="M334,-122.27C334,-140.56 334,-166 334,-166 334,-166 820.71,-166 820.71,-166"/>
<polygon fill="black" stroke="black" points="820.71,-169.5 830.71,-166 820.71,-162.5 820.71,-169.5"/>
</g>
<!-- FirestoreModule -->
<g id="node2" class="node">
<title>FirestoreModule</title>
<polygon fill="#8dd3c7" stroke="black" points="260.81,-122 257.81,-126 236.81,-126 233.81,-122 151.19,-122 151.19,-86 260.81,-86 260.81,-122"/>
<text text-anchor="middle" x="206" y="-99.8" font-family="Times,serif" font-size="14.00">FirestoreModule</text>
</g>
<!-- FirestoreModule&#45;&gt;HttpModule -->
<g id="edge2" class="edge">
<title>FirestoreModule&#45;&gt;HttpModule</title>
<path fill="none" stroke="black" d="M206,-122.13C206,-142.57 206,-173 206,-173 206,-173 820.77,-173 820.77,-173"/>
<polygon fill="black" stroke="black" points="820.77,-176.5 830.77,-173 820.77,-169.5 820.77,-176.5"/>
</g>
<!-- GatewayModule -->
<g id="node3" class="node">
<title>GatewayModule</title>
<polygon fill="#8dd3c7" stroke="black" points="133.8,-122 130.8,-126 109.8,-126 106.8,-122 24.2,-122 24.2,-86 133.8,-86 133.8,-122"/>
<text text-anchor="middle" x="79" y="-99.8" font-family="Times,serif" font-size="14.00">GatewayModule</text>
</g>
<!-- GatewayModule&#45;&gt;HttpModule -->
<g id="edge3" class="edge">
<title>GatewayModule&#45;&gt;HttpModule</title>
<path fill="none" stroke="black" d="M79,-122.01C79,-144.49 79,-180 79,-180 79,-180 820.59,-180 820.59,-180"/>
<polygon fill="black" stroke="black" points="820.59,-183.5 830.59,-180 820.59,-176.5 820.59,-183.5"/>
</g>
<!-- CreateCondominiumService -->
<g id="node5" class="node">
<title>CreateCondominiumService</title>
<ellipse fill="#fdb462" stroke="black" cx="1744" cy="-104" rx="120.99" ry="18"/>
<text text-anchor="middle" x="1744" y="-99.8" font-family="Times,serif" font-size="14.00">CreateCondominiumService</text>
</g>
<!-- CreateCondominiumService&#45;&gt;HttpModule -->
<g id="edge4" class="edge">
<title>CreateCondominiumService&#45;&gt;HttpModule</title>
<path fill="none" stroke="black" d="M1744,-122.01C1744,-144.49 1744,-180 1744,-180 1744,-180 925.3,-180 925.3,-180"/>
<polygon fill="black" stroke="black" points="925.3,-176.5 915.3,-180 925.3,-183.5 925.3,-176.5"/>
</g>
<!-- CreateTokenService -->
<g id="node6" class="node">
<title>CreateTokenService</title>
<ellipse fill="#fdb462" stroke="black" cx="1515" cy="-104" rx="89.72" ry="18"/>
<text text-anchor="middle" x="1515" y="-99.8" font-family="Times,serif" font-size="14.00">CreateTokenService</text>
</g>
<!-- CreateTokenService&#45;&gt;HttpModule -->
<g id="edge5" class="edge">
<title>CreateTokenService&#45;&gt;HttpModule</title>
<path fill="none" stroke="black" d="M1515,-122.13C1515,-142.57 1515,-173 1515,-173 1515,-173 925.62,-173 925.62,-173"/>
<polygon fill="black" stroke="black" points="925.62,-169.5 915.62,-173 925.62,-176.5 925.62,-169.5"/>
</g>
<!-- CreateUserService -->
<g id="node7" class="node">
<title>CreateUserService</title>
<ellipse fill="#fdb462" stroke="black" cx="1324" cy="-104" rx="83.34" ry="18"/>
<text text-anchor="middle" x="1324" y="-99.8" font-family="Times,serif" font-size="14.00">CreateUserService</text>
</g>
<!-- CreateUserService&#45;&gt;HttpModule -->
<g id="edge6" class="edge">
<title>CreateUserService&#45;&gt;HttpModule</title>
<path fill="none" stroke="black" d="M1324,-122.27C1324,-140.56 1324,-166 1324,-166 1324,-166 925.43,-166 925.43,-166"/>
<polygon fill="black" stroke="black" points="925.43,-162.5 915.43,-166 925.43,-169.5 925.43,-162.5"/>
</g>
<!-- DeleteUserService -->
<g id="node8" class="node">
<title>DeleteUserService</title>
<ellipse fill="#fdb462" stroke="black" cx="1139" cy="-104" rx="83.34" ry="18"/>
<text text-anchor="middle" x="1139" y="-99.8" font-family="Times,serif" font-size="14.00">DeleteUserService</text>
</g>
<!-- DeleteUserService&#45;&gt;HttpModule -->
<g id="edge7" class="edge">
<title>DeleteUserService&#45;&gt;HttpModule</title>
<path fill="none" stroke="black" d="M1139,-122.01C1139,-138.05 1139,-159 1139,-159 1139,-159 925.44,-159 925.44,-159"/>
<polygon fill="black" stroke="black" points="925.44,-155.5 915.44,-159 925.44,-162.5 925.44,-155.5"/>
</g>
<!-- GenInviteService -->
<g id="node9" class="node">
<title>GenInviteService</title>
<ellipse fill="#fdb462" stroke="black" cx="959" cy="-104" rx="78.71" ry="18"/>
<text text-anchor="middle" x="959" y="-99.8" font-family="Times,serif" font-size="14.00">GenInviteService</text>
</g>
<!-- GenInviteService&#45;&gt;HttpModule -->
<g id="edge8" class="edge">
<title>GenInviteService&#45;&gt;HttpModule</title>
<path fill="none" stroke="black" d="M897.81,-115.32C897.81,-115.32 897.81,-140.94 897.81,-140.94"/>
<polygon fill="black" stroke="black" points="894.31,-140.94 897.81,-150.94 901.31,-140.94 894.31,-140.94"/>
</g>
<!-- GenTFAService -->
<g id="node10" class="node">
<title>GenTFAService</title>
<ellipse fill="#fdb462" stroke="black" cx="788" cy="-104" rx="74.14" ry="18"/>
<text text-anchor="middle" x="788" y="-99.8" font-family="Times,serif" font-size="14.00">GenTFAService</text>
</g>
<!-- GenTFAService&#45;&gt;HttpModule -->
<g id="edge9" class="edge">
<title>GenTFAService&#45;&gt;HttpModule</title>
<path fill="none" stroke="black" d="M846.55,-115.32C846.55,-115.32 846.55,-140.94 846.55,-140.94"/>
<polygon fill="black" stroke="black" points="843.05,-140.94 846.55,-150.94 850.05,-140.94 843.05,-140.94"/>
</g>
<!-- GetCondominiumRelUserService -->
<g id="node11" class="node">
<title>GetCondominiumRelUserService</title>
<ellipse fill="#fdb462" stroke="black" cx="554" cy="-104" rx="141.25" ry="18"/>
<text text-anchor="middle" x="554" y="-99.8" font-family="Times,serif" font-size="14.00">GetCondominiumRelUserService</text>
</g>
<!-- GetCondominiumRelUserService&#45;&gt;HttpModule -->
<g id="edge10" class="edge">
<title>GetCondominiumRelUserService&#45;&gt;HttpModule</title>
<path fill="none" stroke="black" d="M554,-122.01C554,-138.05 554,-159 554,-159 554,-159 820.64,-159 820.64,-159"/>
<polygon fill="black" stroke="black" points="820.64,-162.5 830.64,-159 820.64,-155.5 820.64,-162.5"/>
</g>
</g>
</svg>
