<?xml version="1.0" encoding="UTF-8" standalone="no"?>
<!DOCTYPE svg PUBLIC "-//W3C//DTD SVG 1.1//EN"
 "http://www.w3.org/Graphics/SVG/1.1/DTD/svg11.dtd">
<!-- Generated by graphviz version 2.47.0 (20210316.0004)
 -->
<!-- Title: dependencies Pages: 1 -->
<svg width="2185pt" height="211pt"
 viewBox="0.00 0.00 2185.00 211.00" xmlns="http://www.w3.org/2000/svg" xmlns:xlink="http://www.w3.org/1999/xlink">
<g id="graph0" class="graph" transform="scale(1 1) rotate(0) translate(4 207)">
<title>dependencies</title>
<polygon fill="white" stroke="transparent" points="-4,4 -4,-207 2181,-207 2181,4 -4,4"/>
<text text-anchor="start" x="1067.51" y="-42.4" font-family="Times-12" font-weight="bold" font-size="14.00">Legend</text>
<polygon fill="#ffffb3" stroke="transparent" points="854.5,-10 854.5,-30 874.5,-30 874.5,-10 854.5,-10"/>
<text text-anchor="start" x="878.13" y="-15.4" font-family="Times-12" font-size="14.00"> &#160;Declarations</text>
<polygon fill="#8dd3c7" stroke="transparent" points="967.5,-10 967.5,-30 987.5,-30 987.5,-10 967.5,-10"/>
<text text-anchor="start" x="991.23" y="-15.4" font-family="Times-12" font-size="14.00"> &#160;Module</text>
<polygon fill="#80b1d3" stroke="transparent" points="1053.5,-10 1053.5,-30 1073.5,-30 1073.5,-10 1053.5,-10"/>
<text text-anchor="start" x="1077.28" y="-15.4" font-family="Times-12" font-size="14.00"> &#160;Bootstrap</text>
<polygon fill="#fdb462" stroke="transparent" points="1150.5,-10 1150.5,-30 1170.5,-30 1170.5,-10 1150.5,-10"/>
<text text-anchor="start" x="1174.17" y="-15.4" font-family="Times-12" font-size="14.00"> &#160;Providers</text>
<polygon fill="#fb8072" stroke="transparent" points="1246.5,-10 1246.5,-30 1266.5,-30 1266.5,-10 1246.5,-10"/>
<text text-anchor="start" x="1270.23" y="-15.4" font-family="Times-12" font-size="14.00"> &#160;Exports</text>
<g id="clust1" class="cluster">
<title>cluster_HttpModule</title>
<polygon fill="none" stroke="black" stroke-dasharray="1,5" points="8,-70 8,-195 2169,-195 2169,-70 8,-70"/>
</g>
<g id="clust3" class="cluster">
<title>cluster_HttpModule_imports</title>
<polygon fill="none" stroke="black" points="1681,-78 1681,-130 2161,-130 2161,-78 1681,-78"/>
</g>
<g id="clust6" class="cluster">
<title>cluster_HttpModule_providers</title>
<polygon fill="none" stroke="black" points="16,-78 16,-130 1673,-130 1673,-78 16,-78"/>
</g>
<!-- AdaptersModule -->
<g id="node1" class="node">
<title>AdaptersModule</title>
<polygon fill="#8dd3c7" stroke="black" points="2153.08,-122 2150.08,-126 2129.08,-126 2126.08,-122 2042.92,-122 2042.92,-86 2153.08,-86 2153.08,-122"/>
<text text-anchor="middle" x="2098" y="-99.8" font-family="Times,serif" font-size="14.00">AdaptersModule</text>
</g>
<!-- HttpModule -->
<g id="node5" class="node">
<title>HttpModule</title>
<polygon fill="#8dd3c7" stroke="black" points="1261.44,-187 1258.44,-191 1237.44,-191 1234.44,-187 1176.56,-187 1176.56,-151 1261.44,-151 1261.44,-187"/>
<text text-anchor="middle" x="1219" y="-164.8" font-family="Times,serif" font-size="14.00">HttpModule</text>
</g>
<!-- AdaptersModule&#45;&gt;HttpModule -->
<g id="edge1" class="edge">
<title>AdaptersModule&#45;&gt;HttpModule</title>
<path fill="none" stroke="black" d="M2098,-122.09C2098,-145.13 2098,-182 2098,-182 2098,-182 1271.4,-182 1271.4,-182"/>
<polygon fill="black" stroke="black" points="1271.4,-178.5 1261.4,-182 1271.4,-185.5 1271.4,-178.5"/>
</g>
<!-- GatewayModule -->
<g id="node2" class="node">
<title>GatewayModule</title>
<polygon fill="#8dd3c7" stroke="black" points="2024.8,-122 2021.8,-126 2000.8,-126 1997.8,-122 1915.2,-122 1915.2,-86 2024.8,-86 2024.8,-122"/>
<text text-anchor="middle" x="1970" y="-99.8" font-family="Times,serif" font-size="14.00">GatewayModule</text>
</g>
<!-- GatewayModule&#45;&gt;HttpModule -->
<g id="edge2" class="edge">
<title>GatewayModule&#45;&gt;HttpModule</title>
<path fill="none" stroke="black" d="M1970,-122.28C1970,-143.32 1970,-175 1970,-175 1970,-175 1271.26,-175 1271.26,-175"/>
<polygon fill="black" stroke="black" points="1271.26,-171.5 1261.26,-175 1271.26,-178.5 1271.26,-171.5"/>
</g>
<!-- PrismaModule -->
<g id="node3" class="node">
<title>PrismaModule</title>
<polygon fill="#8dd3c7" stroke="black" points="1897.43,-122 1894.43,-126 1873.43,-126 1870.43,-122 1798.57,-122 1798.57,-86 1897.43,-86 1897.43,-122"/>
<text text-anchor="middle" x="1848" y="-99.8" font-family="Times,serif" font-size="14.00">PrismaModule</text>
</g>
<!-- PrismaModule&#45;&gt;HttpModule -->
<g id="edge3" class="edge">
<title>PrismaModule&#45;&gt;HttpModule</title>
<path fill="none" stroke="black" d="M1848,-122.11C1848,-141.34 1848,-169 1848,-169 1848,-169 1271.25,-169 1271.25,-169"/>
<polygon fill="black" stroke="black" points="1271.25,-165.5 1261.25,-169 1271.25,-172.5 1271.25,-165.5"/>
</g>
<!-- RedisModule -->
<g id="node4" class="node">
<title>RedisModule</title>
<polygon fill="#8dd3c7" stroke="black" points="1780.94,-122 1777.94,-126 1756.94,-126 1753.94,-122 1689.06,-122 1689.06,-86 1780.94,-86 1780.94,-122"/>
<text text-anchor="middle" x="1735" y="-99.8" font-family="Times,serif" font-size="14.00">RedisModule</text>
</g>
<!-- RedisModule&#45;&gt;HttpModule -->
<g id="edge4" class="edge">
<title>RedisModule&#45;&gt;HttpModule</title>
<path fill="none" stroke="black" d="M1735,-122.02C1735,-139.37 1735,-163 1735,-163 1735,-163 1271.23,-163 1271.23,-163"/>
<polygon fill="black" stroke="black" points="1271.23,-159.5 1261.23,-163 1271.23,-166.5 1271.23,-159.5"/>
</g>
<!-- CreateCondominiumService -->
<g id="node6" class="node">
<title>CreateCondominiumService</title>
<ellipse fill="#fdb462" stroke="black" cx="1544" cy="-104" rx="120.99" ry="18"/>
<text text-anchor="middle" x="1544" y="-99.8" font-family="Times,serif" font-size="14.00">CreateCondominiumService</text>
</g>
<!-- CreateCondominiumService&#45;&gt;HttpModule -->
<g id="edge5" class="edge">
<title>CreateCondominiumService&#45;&gt;HttpModule</title>
<path fill="none" stroke="black" d="M1544,-122.24C1544,-137.57 1544,-157 1544,-157 1544,-157 1271.49,-157 1271.49,-157"/>
<polygon fill="black" stroke="black" points="1271.49,-153.5 1261.49,-157 1271.49,-160.5 1271.49,-153.5"/>
</g>
<!-- CreateTokenService -->
<g id="node7" class="node">
<title>CreateTokenService</title>
<ellipse fill="#fdb462" stroke="black" cx="1315" cy="-104" rx="89.72" ry="18"/>
<text text-anchor="middle" x="1315" y="-99.8" font-family="Times,serif" font-size="14.00">CreateTokenService</text>
</g>
<!-- CreateTokenService&#45;&gt;HttpModule -->
<g id="edge6" class="edge">
<title>CreateTokenService&#45;&gt;HttpModule</title>
<path fill="none" stroke="black" d="M1243.18,-115.03C1243.18,-115.03 1243.18,-140.78 1243.18,-140.78"/>
<polygon fill="black" stroke="black" points="1239.68,-140.78 1243.18,-150.78 1246.68,-140.78 1239.68,-140.78"/>
</g>
<!-- CreateUserService -->
<g id="node8" class="node">
<title>CreateUserService</title>
<ellipse fill="#fdb462" stroke="black" cx="1124" cy="-104" rx="83.34" ry="18"/>
<text text-anchor="middle" x="1124" y="-99.8" font-family="Times,serif" font-size="14.00">CreateUserService</text>
</g>
<!-- CreateUserService&#45;&gt;HttpModule -->
<g id="edge7" class="edge">
<title>CreateUserService&#45;&gt;HttpModule</title>
<path fill="none" stroke="black" d="M1192.1,-114.44C1192.1,-114.44 1192.1,-140.97 1192.1,-140.97"/>
<polygon fill="black" stroke="black" points="1188.6,-140.97 1192.1,-150.97 1195.6,-140.97 1188.6,-140.97"/>
</g>
<!-- DeleteUserService -->
<g id="node9" class="node">
<title>DeleteUserService</title>
<ellipse fill="#fdb462" stroke="black" cx="939" cy="-104" rx="83.34" ry="18"/>
<text text-anchor="middle" x="939" y="-99.8" font-family="Times,serif" font-size="14.00">DeleteUserService</text>
</g>
<!-- DeleteUserService&#45;&gt;HttpModule -->
<g id="edge8" class="edge">
<title>DeleteUserService&#45;&gt;HttpModule</title>
<path fill="none" stroke="black" d="M939,-122.24C939,-137.57 939,-157 939,-157 939,-157 1166.78,-157 1166.78,-157"/>
<polygon fill="black" stroke="black" points="1166.78,-160.5 1176.78,-157 1166.78,-153.5 1166.78,-160.5"/>
</g>
<!-- GenInviteService -->
<g id="node10" class="node">
<title>GenInviteService</title>
<ellipse fill="#fdb462" stroke="black" cx="759" cy="-104" rx="78.71" ry="18"/>
<text text-anchor="middle" x="759" y="-99.8" font-family="Times,serif" font-size="14.00">GenInviteService</text>
</g>
<!-- GenInviteService&#45;&gt;HttpModule -->
<g id="edge9" class="edge">
<title>GenInviteService&#45;&gt;HttpModule</title>
<path fill="none" stroke="black" d="M759,-122.02C759,-139.37 759,-163 759,-163 759,-163 1166.55,-163 1166.55,-163"/>
<polygon fill="black" stroke="black" points="1166.55,-166.5 1176.55,-163 1166.55,-159.5 1166.55,-166.5"/>
</g>
<!-- GenOldTFASevice -->
<g id="node11" class="node">
<title>GenOldTFASevice</title>
<ellipse fill="#fdb462" stroke="black" cx="577" cy="-104" rx="85.67" ry="18"/>
<text text-anchor="middle" x="577" y="-99.8" font-family="Times,serif" font-size="14.00">GenOldTFASevice</text>
</g>
<!-- GenOldTFASevice&#45;&gt;HttpModule -->
<g id="edge10" class="edge">
<title>GenOldTFASevice&#45;&gt;HttpModule</title>
<path fill="none" stroke="black" d="M577,-122.11C577,-141.34 577,-169 577,-169 577,-169 1166.38,-169 1166.38,-169"/>
<polygon fill="black" stroke="black" points="1166.38,-172.5 1176.38,-169 1166.38,-165.5 1166.38,-172.5"/>
</g>
<!-- GenTFAService -->
<g id="node12" class="node">
<title>GenTFAService</title>
<ellipse fill="#fdb462" stroke="black" cx="399" cy="-104" rx="74.14" ry="18"/>
<text text-anchor="middle" x="399" y="-99.8" font-family="Times,serif" font-size="14.00">GenTFAService</text>
</g>
<!-- GenTFAService&#45;&gt;HttpModule -->
<g id="edge11" class="edge">
<title>GenTFAService&#45;&gt;HttpModule</title>
<path fill="none" stroke="black" d="M399,-122.28C399,-143.32 399,-175 399,-175 399,-175 1166.64,-175 1166.64,-175"/>
<polygon fill="black" stroke="black" points="1166.64,-178.5 1176.64,-175 1166.64,-171.5 1166.64,-178.5"/>
</g>
<!-- GetCondominiumRelUserService -->
<g id="node13" class="node">
<title>GetCondominiumRelUserService</title>
<ellipse fill="#fdb462" stroke="black" cx="165" cy="-104" rx="141.25" ry="18"/>
<text text-anchor="middle" x="165" y="-99.8" font-family="Times,serif" font-size="14.00">GetCondominiumRelUserService</text>
</g>
<!-- GetCondominiumRelUserService&#45;&gt;HttpModule -->
<g id="edge12" class="edge">
<title>GetCondominiumRelUserService&#45;&gt;HttpModule</title>
<path fill="none" stroke="black" d="M165,-122.09C165,-145.13 165,-182 165,-182 165,-182 1166.7,-182 1166.7,-182"/>
<polygon fill="black" stroke="black" points="1166.7,-185.5 1176.7,-182 1166.7,-178.5 1166.7,-185.5"/>
</g>
</g>
</svg>
