<?xml version="1.0" encoding="UTF-8" standalone="no"?>
<!DOCTYPE svg PUBLIC "-//W3C//DTD SVG 1.1//EN"
 "http://www.w3.org/Graphics/SVG/1.1/DTD/svg11.dtd">
<!-- Generated by graphviz version 2.47.0 (20210316.0004)
 -->
<!-- Title: dependencies Pages: 1 -->
<svg width="623pt" height="211pt"
 viewBox="0.00 0.00 623.00 211.00" xmlns="http://www.w3.org/2000/svg" xmlns:xlink="http://www.w3.org/1999/xlink">
<g id="graph0" class="graph" transform="scale(1 1) rotate(0) translate(4 207)">
<title>dependencies</title>
<polygon fill="white" stroke="transparent" points="-4,4 -4,-207 619,-207 619,4 -4,4"/>
<text text-anchor="start" x="286.51" y="-42.4" font-family="Times-12" font-weight="bold" font-size="14.00">Legend</text>
<polygon fill="#ffffb3" stroke="transparent" points="73.5,-10 73.5,-30 93.5,-30 93.5,-10 73.5,-10"/>
<text text-anchor="start" x="97.13" y="-15.4" font-family="Times-12" font-size="14.00"> &#160;Declarations</text>
<polygon fill="#8dd3c7" stroke="transparent" points="186.5,-10 186.5,-30 206.5,-30 206.5,-10 186.5,-10"/>
<text text-anchor="start" x="210.23" y="-15.4" font-family="Times-12" font-size="14.00"> &#160;Module</text>
<polygon fill="#80b1d3" stroke="transparent" points="272.5,-10 272.5,-30 292.5,-30 292.5,-10 272.5,-10"/>
<text text-anchor="start" x="296.28" y="-15.4" font-family="Times-12" font-size="14.00"> &#160;Bootstrap</text>
<polygon fill="#fdb462" stroke="transparent" points="369.5,-10 369.5,-30 389.5,-30 389.5,-10 369.5,-10"/>
<text text-anchor="start" x="393.17" y="-15.4" font-family="Times-12" font-size="14.00"> &#160;Providers</text>
<polygon fill="#fb8072" stroke="transparent" points="465.5,-10 465.5,-30 485.5,-30 485.5,-10 465.5,-10"/>
<text text-anchor="start" x="489.23" y="-15.4" font-family="Times-12" font-size="14.00"> &#160;Exports</text>
<g id="clust1" class="cluster">
<title>cluster_AdaptersModule</title>
<polygon fill="none" stroke="black" stroke-dasharray="1,5" points="8,-70 8,-195 607,-195 607,-70 8,-70"/>
</g>
<g id="clust4" class="cluster">
<title>cluster_AdaptersModule_exports</title>
<polygon fill="none" stroke="black" points="16,-135 16,-187 599,-187 599,-135 16,-135"/>
</g>
<!-- CookieAdapter  -->
<g id="node1" class="node">
<title>CookieAdapter </title>
<polygon fill="#fb8072" stroke="black" points="590.53,-179 485.47,-179 485.47,-143 590.53,-143 590.53,-179"/>
<text text-anchor="middle" x="538" y="-156.8" font-family="Times,serif" font-size="14.00">CookieAdapter </text>
</g>
<!-- CryptAdapter  -->
<g id="node2" class="node">
<title>CryptAdapter </title>
<polygon fill="#fb8072" stroke="black" points="467.48,-179 370.52,-179 370.52,-143 467.48,-143 467.48,-179"/>
<text text-anchor="middle" x="419" y="-156.8" font-family="Times,serif" font-size="14.00">CryptAdapter </text>
</g>
<!-- EmailAdapter  -->
<g id="node3" class="node">
<title>EmailAdapter </title>
<polygon fill="#fb8072" stroke="black" points="353.03,-179 254.97,-179 254.97,-143 353.03,-143 353.03,-179"/>
<text text-anchor="middle" x="304" y="-156.8" font-family="Times,serif" font-size="14.00">EmailAdapter </text>
</g>
<!-- HttpAdapter  -->
<g id="node4" class="node">
<title>HttpAdapter </title>
<polygon fill="#fb8072" stroke="black" points="236.98,-179 147.02,-179 147.02,-143 236.98,-143 236.98,-179"/>
<text text-anchor="middle" x="192" y="-156.8" font-family="Times,serif" font-size="14.00">HttpAdapter </text>
</g>
<!-- LoggerAdapter  -->
<g id="node5" class="node">
<title>LoggerAdapter </title>
<polygon fill="#fb8072" stroke="black" points="129.51,-179 24.49,-179 24.49,-143 129.51,-143 129.51,-179"/>
<text text-anchor="middle" x="77" y="-156.8" font-family="Times,serif" font-size="14.00">LoggerAdapter </text>
</g>
<!-- AdaptersModule -->
<g id="node6" class="node">
<title>AdaptersModule</title>
<polygon fill="#8dd3c7" stroke="black" points="359.08,-114 356.08,-118 335.08,-118 332.08,-114 248.92,-114 248.92,-78 359.08,-78 359.08,-114"/>
<text text-anchor="middle" x="304" y="-91.8" font-family="Times,serif" font-size="14.00">AdaptersModule</text>
</g>
<!-- AdaptersModule&#45;&gt;CookieAdapter  -->
<g id="edge1" class="edge">
<title>AdaptersModule&#45;&gt;CookieAdapter </title>
<path fill="none" stroke="black" stroke-dasharray="5,2" d="M359.16,-90C428.34,-90 538,-90 538,-90 538,-90 538,-132.72 538,-132.72"/>
<polygon fill="black" stroke="black" points="534.5,-132.72 538,-142.72 541.5,-132.72 534.5,-132.72"/>
</g>
<!-- AdaptersModule&#45;&gt;CryptAdapter  -->
<g id="edge2" class="edge">
<title>AdaptersModule&#45;&gt;CryptAdapter </title>
<path fill="none" stroke="black" stroke-dasharray="5,2" d="M359.14,-102C388.66,-102 419,-102 419,-102 419,-102 419,-132.98 419,-132.98"/>
<polygon fill="black" stroke="black" points="415.5,-132.98 419,-142.98 422.5,-132.98 415.5,-132.98"/>
</g>
<!-- AdaptersModule&#45;&gt;EmailAdapter  -->
<g id="edge3" class="edge">
<title>AdaptersModule&#45;&gt;EmailAdapter </title>
<path fill="none" stroke="black" stroke-dasharray="5,2" d="M304,-114.11C304,-114.11 304,-132.99 304,-132.99"/>
<polygon fill="black" stroke="black" points="300.5,-132.99 304,-142.99 307.5,-132.99 300.5,-132.99"/>
</g>
<!-- AdaptersModule&#45;&gt;HttpAdapter  -->
<g id="edge4" class="edge">
<title>AdaptersModule&#45;&gt;HttpAdapter </title>
<path fill="none" stroke="black" stroke-dasharray="5,2" d="M248.66,-102C220.44,-102 192,-102 192,-102 192,-102 192,-132.98 192,-132.98"/>
<polygon fill="black" stroke="black" points="188.5,-132.98 192,-142.98 195.5,-132.98 188.5,-132.98"/>
</g>
<!-- AdaptersModule&#45;&gt;LoggerAdapter  -->
<g id="edge5" class="edge">
<title>AdaptersModule&#45;&gt;LoggerAdapter </title>
<path fill="none" stroke="black" stroke-dasharray="5,2" d="M248.76,-90C181.57,-90 77,-90 77,-90 77,-90 77,-132.72 77,-132.72"/>
<polygon fill="black" stroke="black" points="73.5,-132.72 77,-142.72 80.5,-132.72 73.5,-132.72"/>
</g>
</g>
</svg>
