<?xml version="1.0" encoding="UTF-8" standalone="no"?>
<!DOCTYPE svg PUBLIC "-//W3C//DTD SVG 1.1//EN"
 "http://www.w3.org/Graphics/SVG/1.1/DTD/svg11.dtd">
<!-- Generated by graphviz version 2.47.0 (20210316.0004)
 -->
<!-- Title: dependencies Pages: 1 -->
<svg width="2824pt" height="355pt"
 viewBox="0.00 0.00 2824.00 355.00" xmlns="http://www.w3.org/2000/svg" xmlns:xlink="http://www.w3.org/1999/xlink">
<g id="graph0" class="graph" transform="scale(1 1) rotate(0) translate(4 351)">
<title>dependencies</title>
<polygon fill="white" stroke="transparent" points="-4,4 -4,-351 2820,-351 2820,4 -4,4"/>
<text text-anchor="start" x="1387.01" y="-42.4" font-family="Times-12" font-weight="bold" font-size="14.00">Legend</text>
<polygon fill="#ffffb3" stroke="transparent" points="1174,-10 1174,-30 1194,-30 1194,-10 1174,-10"/>
<text text-anchor="start" x="1197.63" y="-15.4" font-family="Times-12" font-size="14.00"> &#160;Declarations</text>
<polygon fill="#8dd3c7" stroke="transparent" points="1287,-10 1287,-30 1307,-30 1307,-10 1287,-10"/>
<text text-anchor="start" x="1310.73" y="-15.4" font-family="Times-12" font-size="14.00"> &#160;Module</text>
<polygon fill="#80b1d3" stroke="transparent" points="1373,-10 1373,-30 1393,-30 1393,-10 1373,-10"/>
<text text-anchor="start" x="1396.78" y="-15.4" font-family="Times-12" font-size="14.00"> &#160;Bootstrap</text>
<polygon fill="#fdb462" stroke="transparent" points="1470,-10 1470,-30 1490,-30 1490,-10 1470,-10"/>
<text text-anchor="start" x="1493.67" y="-15.4" font-family="Times-12" font-size="14.00"> &#160;Providers</text>
<polygon fill="#fb8072" stroke="transparent" points="1566,-10 1566,-30 1586,-30 1586,-10 1566,-10"/>
<text text-anchor="start" x="1589.73" y="-15.4" font-family="Times-12" font-size="14.00"> &#160;Exports</text>
<g id="clust1" class="cluster">
<title>cluster_AdaptersModule</title>
<polygon fill="none" stroke="black" stroke-dasharray="1,5" points="8,-146 8,-282 607,-282 607,-146 8,-146"/>
</g>
<g id="clust4" class="cluster">
<title>cluster_AdaptersModule_exports</title>
<polygon fill="none" stroke="black" points="16,-222 16,-274 599,-274 599,-222 16,-222"/>
</g>
<g id="clust7" class="cluster">
<title>cluster_AppModule</title>
<polygon fill="none" stroke="black" stroke-dasharray="1,5" points="1666,-214 1666,-339 1782,-339 1782,-214 1666,-214"/>
</g>
<g id="clust9" class="cluster">
<title>cluster_AppModule_imports</title>
<polygon fill="none" stroke="black" points="1674,-222 1674,-274 1774,-274 1774,-222 1674,-222"/>
</g>
<g id="clust13" class="cluster">
<title>cluster_FirestoreModule</title>
<polygon fill="none" stroke="black" stroke-dasharray="1,5" points="789,-70 789,-282 1183,-282 1183,-70 789,-70"/>
</g>
<g id="clust16" class="cluster">
<title>cluster_FirestoreModule_exports</title>
<polygon fill="none" stroke="black" points="797,-222 797,-274 1137,-274 1137,-222 797,-222"/>
</g>
<g id="clust18" class="cluster">
<title>cluster_FirestoreModule_providers</title>
<polygon fill="none" stroke="black" points="797,-78 797,-130 1175,-130 1175,-78 797,-78"/>
</g>
<g id="clust19" class="cluster">
<title>cluster_GatewayModule</title>
<polygon fill="none" stroke="black" stroke-dasharray="1,5" points="2682,-146 2682,-282 2808,-282 2808,-146 2682,-146"/>
</g>
<g id="clust22" class="cluster">
<title>cluster_GatewayModule_exports</title>
<polygon fill="none" stroke="black" points="2691,-222 2691,-274 2799,-274 2799,-222 2691,-222"/>
</g>
<g id="clust25" class="cluster">
<title>cluster_HttpModule</title>
<polygon fill="none" stroke="black" stroke-dasharray="1,5" points="1191,-138 1191,-206 2674,-206 2674,-138 1191,-138"/>
</g>
<g id="clust30" class="cluster">
<title>cluster_HttpModule_providers</title>
<polygon fill="none" stroke="black" points="1199,-146 1199,-198 2666,-198 2666,-146 1199,-146"/>
</g>
<g id="clust31" class="cluster">
<title>cluster_PrismaModule</title>
<polygon fill="none" stroke="black" stroke-dasharray="1,5" points="615,-70 615,-198 781,-198 781,-70 615,-70"/>
</g>
<g id="clust36" class="cluster">
<title>cluster_PrismaModule_providers</title>
<polygon fill="none" stroke="black" points="623,-78 623,-130 773,-130 773,-78 623,-78"/>
</g>
<!-- CookieAdapter  -->
<g id="node1" class="node">
<title>CookieAdapter </title>
<polygon fill="#fb8072" stroke="black" points="590.53,-266 485.47,-266 485.47,-230 590.53,-230 590.53,-266"/>
<text text-anchor="middle" x="538" y="-243.8" font-family="Times,serif" font-size="14.00">CookieAdapter </text>
</g>
<!-- CryptAdapter  -->
<g id="node2" class="node">
<title>CryptAdapter </title>
<polygon fill="#fb8072" stroke="black" points="467.48,-266 370.52,-266 370.52,-230 467.48,-230 467.48,-266"/>
<text text-anchor="middle" x="419" y="-243.8" font-family="Times,serif" font-size="14.00">CryptAdapter </text>
</g>
<!-- EmailAdapter  -->
<g id="node3" class="node">
<title>EmailAdapter </title>
<polygon fill="#fb8072" stroke="black" points="353.03,-266 254.97,-266 254.97,-230 353.03,-230 353.03,-266"/>
<text text-anchor="middle" x="304" y="-243.8" font-family="Times,serif" font-size="14.00">EmailAdapter </text>
</g>
<!-- HttpAdapter  -->
<g id="node4" class="node">
<title>HttpAdapter </title>
<polygon fill="#fb8072" stroke="black" points="236.98,-266 147.02,-266 147.02,-230 236.98,-230 236.98,-266"/>
<text text-anchor="middle" x="192" y="-243.8" font-family="Times,serif" font-size="14.00">HttpAdapter </text>
</g>
<!-- LoggerAdapter  -->
<g id="node5" class="node">
<title>LoggerAdapter </title>
<polygon fill="#fb8072" stroke="black" points="129.51,-266 24.49,-266 24.49,-230 129.51,-230 129.51,-266"/>
<text text-anchor="middle" x="77" y="-243.8" font-family="Times,serif" font-size="14.00">LoggerAdapter </text>
</g>
<!-- AdaptersModule -->
<g id="node6" class="node">
<title>AdaptersModule</title>
<polygon fill="#8dd3c7" stroke="black" points="416.08,-190 413.08,-194 392.08,-194 389.08,-190 305.92,-190 305.92,-154 416.08,-154 416.08,-190"/>
<text text-anchor="middle" x="361" y="-167.8" font-family="Times,serif" font-size="14.00">AdaptersModule</text>
</g>
<!-- AdaptersModule&#45;&gt;CookieAdapter  -->
<g id="edge1" class="edge">
<title>AdaptersModule&#45;&gt;CookieAdapter </title>
<path fill="none" stroke="black" stroke-dasharray="5,2" d="M416.52,-172C468.43,-172 538,-172 538,-172 538,-172 538,-219.99 538,-219.99"/>
<polygon fill="black" stroke="black" points="534.5,-219.99 538,-229.99 541.5,-219.99 534.5,-219.99"/>
</g>
<!-- AdaptersModule&#45;&gt;CryptAdapter  -->
<g id="edge2" class="edge">
<title>AdaptersModule&#45;&gt;CryptAdapter </title>
<path fill="none" stroke="black" stroke-dasharray="5,2" d="M385.86,-190.01C385.86,-190.01 385.86,-219.85 385.86,-219.85"/>
<polygon fill="black" stroke="black" points="382.36,-219.85 385.86,-229.85 389.36,-219.85 382.36,-219.85"/>
</g>
<!-- AdaptersModule&#45;&gt;EmailAdapter  -->
<g id="edge3" class="edge">
<title>AdaptersModule&#45;&gt;EmailAdapter </title>
<path fill="none" stroke="black" stroke-dasharray="5,2" d="M329.49,-190.01C329.49,-190.01 329.49,-219.85 329.49,-219.85"/>
<polygon fill="black" stroke="black" points="325.99,-219.85 329.49,-229.85 332.99,-219.85 325.99,-219.85"/>
</g>
<!-- AdaptersModule&#45;&gt;HttpAdapter  -->
<g id="edge4" class="edge">
<title>AdaptersModule&#45;&gt;HttpAdapter </title>
<path fill="none" stroke="black" stroke-dasharray="5,2" d="M305.66,-178C256.38,-178 192,-178 192,-178 192,-178 192,-219.97 192,-219.97"/>
<polygon fill="black" stroke="black" points="188.5,-219.97 192,-229.97 195.5,-219.97 188.5,-219.97"/>
</g>
<!-- AdaptersModule&#45;&gt;LoggerAdapter  -->
<g id="edge5" class="edge">
<title>AdaptersModule&#45;&gt;LoggerAdapter </title>
<path fill="none" stroke="black" stroke-dasharray="5,2" d="M305.91,-166C223.32,-166 77,-166 77,-166 77,-166 77,-219.8 77,-219.8"/>
<polygon fill="black" stroke="black" points="73.5,-219.8 77,-229.8 80.5,-219.8 73.5,-219.8"/>
</g>
<!-- HttpModule -->
<g id="node7" class="node">
<title>HttpModule</title>
<polygon fill="#8dd3c7" stroke="black" points="1766.44,-266 1763.44,-270 1742.44,-270 1739.44,-266 1681.56,-266 1681.56,-230 1766.44,-230 1766.44,-266"/>
<text text-anchor="middle" x="1724" y="-243.8" font-family="Times,serif" font-size="14.00">HttpModule</text>
</g>
<!-- AdaptersModule&#45;&gt;HttpModule -->
<g id="edge13" class="edge">
<title>AdaptersModule&#45;&gt;HttpModule</title>
<path fill="none" stroke="black" d="M400.95,-190.11C400.95,-199.9 400.95,-210 400.95,-210 400.95,-210 1690.19,-210 1690.19,-210 1690.19,-210 1690.19,-219.89 1690.19,-219.89"/>
<polygon fill="black" stroke="black" points="1686.69,-219.89 1690.19,-229.89 1693.69,-219.89 1686.69,-219.89"/>
</g>
<!-- AppModule -->
<g id="node8" class="node">
<title>AppModule</title>
<polygon fill="#8dd3c7" stroke="black" points="1765.66,-331 1762.66,-335 1741.66,-335 1738.66,-331 1682.34,-331 1682.34,-295 1765.66,-295 1765.66,-331"/>
<text text-anchor="middle" x="1724" y="-308.8" font-family="Times,serif" font-size="14.00">AppModule</text>
</g>
<!-- HttpModule&#45;&gt;AppModule -->
<g id="edge6" class="edge">
<title>HttpModule&#45;&gt;AppModule</title>
<path fill="none" stroke="black" d="M1724,-266.11C1724,-266.11 1724,-284.99 1724,-284.99"/>
<polygon fill="black" stroke="black" points="1720.5,-284.99 1724,-294.99 1727.5,-284.99 1720.5,-284.99"/>
</g>
<!-- CondominiumRepo  -->
<g id="node9" class="node">
<title>CondominiumRepo </title>
<polygon fill="#fb8072" stroke="black" points="1034.95,-266 905.05,-266 905.05,-230 1034.95,-230 1034.95,-266"/>
<text text-anchor="middle" x="970" y="-243.8" font-family="Times,serif" font-size="14.00">CondominiumRepo </text>
</g>
<!-- InviteRepo  -->
<g id="node10" class="node">
<title>InviteRepo </title>
<polygon fill="#fb8072" stroke="black" points="886.71,-266 805.29,-266 805.29,-230 886.71,-230 886.71,-266"/>
<text text-anchor="middle" x="846" y="-243.8" font-family="Times,serif" font-size="14.00">InviteRepo </text>
</g>
<!-- UserRepo  -->
<g id="node11" class="node">
<title>UserRepo </title>
<polygon fill="#fb8072" stroke="black" points="1128.98,-266 1053.02,-266 1053.02,-230 1128.98,-230 1128.98,-266"/>
<text text-anchor="middle" x="1091" y="-243.8" font-family="Times,serif" font-size="14.00">UserRepo </text>
</g>
<!-- FirestoreModule -->
<g id="node12" class="node">
<title>FirestoreModule</title>
<polygon fill="#8dd3c7" stroke="black" points="1073.81,-190 1070.81,-194 1049.81,-194 1046.81,-190 964.19,-190 964.19,-154 1073.81,-154 1073.81,-190"/>
<text text-anchor="middle" x="1019" y="-167.8" font-family="Times,serif" font-size="14.00">FirestoreModule</text>
</g>
<!-- FirestoreModule&#45;&gt;HttpModule -->
<g id="edge14" class="edge">
<title>FirestoreModule&#45;&gt;HttpModule</title>
<path fill="none" stroke="black" d="M1068.56,-190.21C1068.56,-195.55 1068.56,-200 1068.56,-200 1068.56,-200 1698.6,-200 1698.6,-200 1698.6,-200 1698.6,-219.85 1698.6,-219.85"/>
<polygon fill="black" stroke="black" points="1695.1,-219.85 1698.6,-229.85 1702.1,-219.85 1695.1,-219.85"/>
</g>
<!-- FirestoreModule&#45;&gt;CondominiumRepo  -->
<g id="edge7" class="edge">
<title>FirestoreModule&#45;&gt;CondominiumRepo </title>
<path fill="none" stroke="black" stroke-dasharray="5,2" d="M999.66,-190.01C999.66,-190.01 999.66,-219.85 999.66,-219.85"/>
<polygon fill="black" stroke="black" points="996.16,-219.85 999.66,-229.85 1003.16,-219.85 996.16,-219.85"/>
</g>
<!-- FirestoreModule&#45;&gt;InviteRepo  -->
<g id="edge8" class="edge">
<title>FirestoreModule&#45;&gt;InviteRepo </title>
<path fill="none" stroke="black" stroke-dasharray="5,2" d="M964.15,-176C918.05,-176 859.62,-176 859.62,-176 859.62,-176 859.62,-219.83 859.62,-219.83"/>
<polygon fill="black" stroke="black" points="856.12,-219.83 859.62,-229.83 863.12,-219.83 856.12,-219.83"/>
</g>
<!-- FirestoreModule&#45;&gt;UserRepo  -->
<g id="edge9" class="edge">
<title>FirestoreModule&#45;&gt;UserRepo </title>
<path fill="none" stroke="black" stroke-dasharray="5,2" d="M1063.46,-190.01C1063.46,-190.01 1063.46,-219.85 1063.46,-219.85"/>
<polygon fill="black" stroke="black" points="1059.96,-219.85 1063.46,-229.85 1066.96,-219.85 1059.96,-219.85"/>
</g>
<!-- CollectionsRefService -->
<g id="node13" class="node">
<title>CollectionsRefService</title>
<ellipse fill="#fdb462" stroke="black" cx="1069" cy="-104" rx="97.85" ry="18"/>
<text text-anchor="middle" x="1069" y="-99.8" font-family="Times,serif" font-size="14.00">CollectionsRefService</text>
</g>
<!-- CollectionsRefService&#45;&gt;FirestoreModule -->
<g id="edge10" class="edge">
<title>CollectionsRefService&#45;&gt;FirestoreModule</title>
<path fill="none" stroke="black" d="M1022.37,-120.12C1022.37,-120.12 1022.37,-143.6 1022.37,-143.6"/>
<polygon fill="black" stroke="black" points="1018.87,-143.6 1022.37,-153.6 1025.87,-143.6 1018.87,-143.6"/>
</g>
<!-- FirestoreService -->
<g id="node14" class="node">
<title>FirestoreService</title>
<ellipse fill="#fdb462" stroke="black" cx="879" cy="-104" rx="74.13" ry="18"/>
<text text-anchor="middle" x="879" y="-99.8" font-family="Times,serif" font-size="14.00">FirestoreService</text>
</g>
<!-- FirestoreService&#45;&gt;FirestoreModule -->
<g id="edge11" class="edge">
<title>FirestoreService&#45;&gt;FirestoreModule</title>
<path fill="none" stroke="black" d="M937.22,-115.46C937.22,-132.36 937.22,-162 937.22,-162 937.22,-162 954,-162 954,-162"/>
<polygon fill="black" stroke="black" points="954,-165.5 964,-162 954,-158.5 954,-165.5"/>
</g>
<!-- CepGateway  -->
<g id="node15" class="node">
<title>CepGateway </title>
<polygon fill="#fb8072" stroke="black" points="2790.8,-266 2699.2,-266 2699.2,-230 2790.8,-230 2790.8,-266"/>
<text text-anchor="middle" x="2745" y="-243.8" font-family="Times,serif" font-size="14.00">CepGateway </text>
</g>
<!-- GatewayModule -->
<g id="node16" class="node">
<title>GatewayModule</title>
<polygon fill="#8dd3c7" stroke="black" points="2799.8,-190 2796.8,-194 2775.8,-194 2772.8,-190 2690.2,-190 2690.2,-154 2799.8,-154 2799.8,-190"/>
<text text-anchor="middle" x="2745" y="-167.8" font-family="Times,serif" font-size="14.00">GatewayModule</text>
</g>
<!-- GatewayModule&#45;&gt;HttpModule -->
<g id="edge15" class="edge">
<title>GatewayModule&#45;&gt;HttpModule</title>
<path fill="none" stroke="black" d="M2694.73,-190.03C2694.73,-215.51 2694.73,-259 2694.73,-259 2694.73,-259 1776.34,-259 1776.34,-259"/>
<polygon fill="black" stroke="black" points="1776.34,-255.5 1766.34,-259 1776.34,-262.5 1776.34,-255.5"/>
</g>
<!-- GatewayModule&#45;&gt;CepGateway  -->
<g id="edge12" class="edge">
<title>GatewayModule&#45;&gt;CepGateway </title>
<path fill="none" stroke="black" stroke-dasharray="5,2" d="M2745,-190.01C2745,-190.01 2745,-219.85 2745,-219.85"/>
<polygon fill="black" stroke="black" points="2741.5,-219.85 2745,-229.85 2748.5,-219.85 2741.5,-219.85"/>
</g>
<!-- CreateCondominiumService -->
<g id="node17" class="node">
<title>CreateCondominiumService</title>
<ellipse fill="#fdb462" stroke="black" cx="2237" cy="-172" rx="120.99" ry="18"/>
<text text-anchor="middle" x="2237" y="-167.8" font-family="Times,serif" font-size="14.00">CreateCondominiumService</text>
</g>
<!-- CreateCondominiumService&#45;&gt;HttpModule -->
<g id="edge16" class="edge">
<title>CreateCondominiumService&#45;&gt;HttpModule</title>
<path fill="none" stroke="black" d="M2237,-190.04C2237,-211.66 2237,-245 2237,-245 2237,-245 1776.42,-245 1776.42,-245"/>
<polygon fill="black" stroke="black" points="1776.42,-241.5 1766.42,-245 1776.42,-248.5 1776.42,-241.5"/>
</g>
<!-- CreateTokenService -->
<g id="node18" class="node">
<title>CreateTokenService</title>
<ellipse fill="#fdb462" stroke="black" cx="2008" cy="-172" rx="89.72" ry="18"/>
<text text-anchor="middle" x="2008" y="-167.8" font-family="Times,serif" font-size="14.00">CreateTokenService</text>
</g>
<!-- CreateTokenService&#45;&gt;HttpModule -->
<g id="edge17" class="edge">
<title>CreateTokenService&#45;&gt;HttpModule</title>
<path fill="none" stroke="black" d="M2008,-190.03C2008,-209.58 2008,-238 2008,-238 2008,-238 1776.52,-238 1776.52,-238"/>
<polygon fill="black" stroke="black" points="1776.52,-234.5 1766.52,-238 1776.52,-241.5 1776.52,-234.5"/>
</g>
<!-- CreateUserService -->
<g id="node19" class="node">
<title>CreateUserService</title>
<ellipse fill="#fdb462" stroke="black" cx="1817" cy="-172" rx="83.34" ry="18"/>
<text text-anchor="middle" x="1817" y="-167.8" font-family="Times,serif" font-size="14.00">CreateUserService</text>
</g>
<!-- CreateUserService&#45;&gt;HttpModule -->
<g id="edge18" class="edge">
<title>CreateUserService&#45;&gt;HttpModule</title>
<path fill="none" stroke="black" d="M1749.9,-182.89C1749.9,-182.89 1749.9,-219.79 1749.9,-219.79"/>
<polygon fill="black" stroke="black" points="1746.4,-219.79 1749.9,-229.79 1753.4,-219.79 1746.4,-219.79"/>
</g>
<!-- DeleteUserService -->
<g id="node20" class="node">
<title>DeleteUserService</title>
<ellipse fill="#fdb462" stroke="black" cx="1632" cy="-172" rx="83.34" ry="18"/>
<text text-anchor="middle" x="1632" y="-167.8" font-family="Times,serif" font-size="14.00">DeleteUserService</text>
</g>
<!-- DeleteUserService&#45;&gt;HttpModule -->
<g id="edge19" class="edge">
<title>DeleteUserService&#45;&gt;HttpModule</title>
<path fill="none" stroke="black" d="M1707.01,-180.13C1707.01,-180.13 1707.01,-219.88 1707.01,-219.88"/>
<polygon fill="black" stroke="black" points="1703.51,-219.88 1707.01,-229.88 1710.51,-219.88 1703.51,-219.88"/>
</g>
<!-- GenInviteService -->
<g id="node21" class="node">
<title>GenInviteService</title>
<ellipse fill="#fdb462" stroke="black" cx="1452" cy="-172" rx="78.71" ry="18"/>
<text text-anchor="middle" x="1452" y="-167.8" font-family="Times,serif" font-size="14.00">GenInviteService</text>
</g>
<!-- GenInviteService&#45;&gt;HttpModule -->
<g id="edge20" class="edge">
<title>GenInviteService&#45;&gt;HttpModule</title>
<path fill="none" stroke="black" d="M1452,-190.03C1452,-210.77 1452,-242 1452,-242 1452,-242 1671.5,-242 1671.5,-242"/>
<polygon fill="black" stroke="black" points="1671.5,-245.5 1681.5,-242 1671.5,-238.5 1671.5,-245.5"/>
</g>
<!-- GenTFAService -->
<g id="node22" class="node">
<title>GenTFAService</title>
<ellipse fill="#fdb462" stroke="black" cx="1281" cy="-172" rx="74.14" ry="18"/>
<text text-anchor="middle" x="1281" y="-167.8" font-family="Times,serif" font-size="14.00">GenTFAService</text>
</g>
<!-- GenTFAService&#45;&gt;HttpModule -->
<g id="edge21" class="edge">
<title>GenTFAService&#45;&gt;HttpModule</title>
<path fill="none" stroke="black" d="M1281,-190.2C1281,-214.36 1281,-254 1281,-254 1281,-254 1671.52,-254 1671.52,-254"/>
<polygon fill="black" stroke="black" points="1671.52,-257.5 1681.52,-254 1671.52,-250.5 1671.52,-257.5"/>
</g>
<!-- GetCondominiumRelUserService -->
<g id="node23" class="node">
<title>GetCondominiumRelUserService</title>
<ellipse fill="#fdb462" stroke="black" cx="2517" cy="-172" rx="141.25" ry="18"/>
<text text-anchor="middle" x="2517" y="-167.8" font-family="Times,serif" font-size="14.00">GetCondominiumRelUserService</text>
</g>
<!-- GetCondominiumRelUserService&#45;&gt;HttpModule -->
<g id="edge22" class="edge">
<title>GetCondominiumRelUserService&#45;&gt;HttpModule</title>
<path fill="none" stroke="black" d="M2517,-190.15C2517,-213.76 2517,-252 2517,-252 2517,-252 1776.35,-252 1776.35,-252"/>
<polygon fill="black" stroke="black" points="1776.35,-248.5 1766.35,-252 1776.35,-255.5 1776.35,-248.5"/>
</g>
<!-- PrismaModule -->
<g id="node24" class="node">
<title>PrismaModule</title>
<polygon fill="#8dd3c7" stroke="black" points="773.43,-190 770.43,-194 749.43,-194 746.43,-190 674.57,-190 674.57,-154 773.43,-154 773.43,-190"/>
<text text-anchor="middle" x="724" y="-167.8" font-family="Times,serif" font-size="14.00">PrismaModule</text>
</g>
<!-- PrismaModule&#45;&gt;CondominiumRepo  -->
<g id="edge23" class="edge">
<title>PrismaModule&#45;&gt;CondominiumRepo </title>
<path fill="none" stroke="black" stroke-dasharray="5,2" d="M773.23,-169C831.62,-169 921.12,-169 921.12,-169 921.12,-169 921.12,-219.68 921.12,-219.68"/>
<polygon fill="black" stroke="black" points="917.62,-219.68 921.12,-229.68 924.62,-219.68 917.62,-219.68"/>
</g>
<!-- PrismaModule&#45;&gt;InviteRepo  -->
<g id="edge24" class="edge">
<title>PrismaModule&#45;&gt;InviteRepo </title>
<path fill="none" stroke="black" stroke-dasharray="5,2" d="M773.43,-183C802.02,-183 832.38,-183 832.38,-183 832.38,-183 832.38,-219.89 832.38,-219.89"/>
<polygon fill="black" stroke="black" points="828.88,-219.89 832.38,-229.89 835.88,-219.89 828.88,-219.89"/>
</g>
<!-- PrismaModule&#45;&gt;UserRepo  -->
<g id="edge25" class="edge">
<title>PrismaModule&#45;&gt;UserRepo </title>
<path fill="none" stroke="black" stroke-dasharray="5,2" d="M724,-190.15C724,-203.74 724,-220 724,-220 724,-220 1058.36,-220 1058.36,-220 1058.36,-220 1058.36,-220.98 1058.36,-220.98"/>
<polygon fill="black" stroke="black" points="1054.86,-219.79 1058.36,-229.79 1061.86,-219.79 1054.86,-219.79"/>
</g>
<!-- PrismaService -->
<g id="node25" class="node">
<title>PrismaService</title>
<ellipse fill="#fdb462" stroke="black" cx="698" cy="-104" rx="66.63" ry="18"/>
<text text-anchor="middle" x="698" y="-99.8" font-family="Times,serif" font-size="14.00">PrismaService</text>
</g>
<!-- PrismaService&#45;&gt;PrismaModule -->
<g id="edge26" class="edge">
<title>PrismaService&#45;&gt;PrismaModule</title>
<path fill="none" stroke="black" d="M719.8,-121.16C719.8,-121.16 719.8,-143.65 719.8,-143.65"/>
<polygon fill="black" stroke="black" points="716.3,-143.65 719.8,-153.65 723.3,-143.65 716.3,-143.65"/>
</g>
</g>
</svg>
